#N canvas 527 164 694 428 12;
#X obj 303 278 osc~ 440;
#X obj 308 356 dac~;
#X obj 184 284 print;
#X obj 41 33 netreceive -u -b 8000;
#X obj 71 77 oscparse;
#X obj 83 118 route /play_wave;
#X obj 210 155 list split 1;
#X obj 248 202 * 200;
#X obj 312 313 *~ 0.3;
#X connect 0 0 8 0;
#X connect 3 0 4 0;
#X connect 4 0 5 0;
#X connect 5 1 6 0;
#X connect 6 1 7 0;
#X connect 7 0 0 0;
#X connect 7 0 2 0;
#X connect 8 0 1 1;
#X connect 8 0 1 0;
